<svg width="342" height="277" viewBox="0 0 342 277" fill="none" xmlns="http://www.w3.org/2000/svg">
<path d="M341.21 198.724C340.742 201.666 340.655 204.185 339.919 206.505C333.464 226.847 323.496 245.173 308.219 260.299C305.835 262.66 302.984 264.654 300.079 266.358C292.008 271.086 284.968 269.949 278.441 263.196C270.449 254.921 262.506 246.593 254.413 238.416C252.093 236.074 249.333 234.171 246.772 232.067C246.39 232.275 246.013 232.486 245.631 232.694C245.763 234.446 245.858 236.203 246.032 237.951C246.587 243.602 247.595 249.248 247.633 254.898C247.686 262.607 242.666 268.82 235.003 269.848C226.35 271.007 217.557 271.324 208.814 271.566C163.789 272.812 118.76 273.927 73.7316 275.06C51.712 275.615 29.6887 276.098 7.66542 276.627C1.90182 276.767 0.602553 275.774 0.141767 270.123C-0.66272 260.254 2.06045 250.967 5.68253 242.027C10.3659 230.469 8.5039 231.523 20.8394 229.668C40.4303 226.722 60.0817 224.147 79.7633 221.88C100.654 219.475 121.597 217.526 142.532 215.539C163.252 213.575 183.988 211.785 204.723 209.976C226.879 208.046 249.034 206.142 271.197 204.303C288.885 202.833 306.58 201.481 324.271 200.076C329.611 199.653 334.952 199.223 341.214 198.724H341.21Z" fill="#3358FF"/>
<path d="M136.172 197.292C142.948 188.265 147.069 178.445 148.874 167.737C151.329 153.177 151.529 138.519 150.03 123.842C145.917 83.5307 135.1 44.7567 122.998 6.28104C122.473 4.60786 121.948 2.93845 121.442 1.2615C121.386 1.06887 121.461 0.838479 121.518 0C124.528 1.89602 127.342 3.57298 130.065 5.38969C160.477 25.7247 188.479 49.0737 215.197 73.9788C240.465 97.528 264.709 122.093 286.509 148.936C292.915 156.822 298.592 165.309 304.423 173.648C305.772 175.578 306.637 177.943 307.298 180.232C308.314 183.752 307.536 184.9 303.913 185.293C296.076 186.142 288.228 186.958 280.368 187.536C253.601 189.504 226.83 191.4 200.055 193.254C179.403 194.686 158.747 196.012 138.091 197.375C137.592 197.409 137.086 197.333 136.172 197.292Z" fill="#3358FF"/>
<path d="M117.427 41.3956C121.483 94.1405 125.491 146.183 129.517 198.516C120.569 199.498 112.007 200.529 103.422 201.356C85.5419 203.075 67.6506 204.71 49.7593 206.327C44.8492 206.769 39.9279 207.094 35.0066 207.354C30.8293 207.573 29.2392 206.244 28.6122 202.089C27.5887 195.302 29.2127 188.794 30.9463 182.339C37.5635 157.706 48.7924 135.098 61.6679 113.259C76.4697 88.1465 93.6963 64.8542 114.432 44.2623C115.206 43.4918 116.01 42.7553 117.431 41.3994L117.427 41.3956Z" fill="#3358FF"/>
</svg>
